<svg aria-hidden="true" style="position: absolute; width: 0; height: 0; overflow: hidden;" version="1.1" xmlns="http://www.w3.org/2000/svg" xmlns:xlink="http://www.w3.org/1999/xlink">
<defs>
<symbol id="icon-write" viewBox="0 0 32 32">
<path d="M24.369 4.81l2.862 2.862-11.909 12.335h-3.306v-3.296l12.351-11.901zM24.392 0.002c-0 0-0 0-0.001 0-0.553 0-1.053 0.224-1.416 0.586l0-0-14.968 14.423v9.001h9.011l14.431-14.952c0.361-0.361 0.585-0.861 0.585-1.412s-0.224-1.051-0.585-1.412l-5.649-5.648c-0.362-0.362-0.862-0.586-1.415-0.586-0.001 0-0.002 0-0.002 0h0zM28.034 27.015c-0.003 0.548-0.448 0.992-0.996 0.992-0.002 0-0.003 0-0.005 0h-22.019c-0.001 0-0.003 0-0.005 0-0.549 0-0.994-0.443-0.996-0.991v-22.008c0-0.001 0-0.002 0-0.003 0-0.551 0.447-0.998 0.998-0.998 0.001 0 0.002 0 0.003 0h5.006c1.106 0 2.002-0.897 2.002-2.002v0c0-1.106-0.896-2.002-2.002-2.002v0h-8.009c-1.106 0-2.002 0.896-2.002 2.002v0 28.005c0 1.106 0.896 2.002 2.002 2.002v0h28.032c1.106 0 2.002-0.896 2.002-2.002v0-8c0-1.106-0.896-2.002-2.002-2.002v0c-1.106 0-2.002 0.896-2.002 2.002v0 5.006z"></path>
</symbol>
<symbol id="icon-twitter" viewBox="0 0 32 32">
<path d="M31.275 5.924c-0.419 0.193-0.933 0.385-1.462 0.542l-0.086 0.022c0.608-0.685 1.084-1.502 1.379-2.401l0.014-0.048c0.016-0.047 0.025-0.101 0.025-0.157 0-0.285-0.231-0.516-0.516-0.516-0.097 0-0.188 0.027-0.266 0.074l0.002-0.001c-1.037 0.627-2.239 1.118-3.519 1.407l-0.082 0.016c-1.278-1.249-3.014-1.96-4.808-1.96-3.788 0-6.87 3.082-6.87 6.869 0 0.298 0.019 0.595 0.056 0.888-4.7-0.413-9.070-2.723-12.071-6.404-0.095-0.116-0.239-0.19-0.4-0.19-0.189 0-0.355 0.102-0.445 0.254l-0.001 0.002c-0.609 1.044-0.93 2.239-0.93 3.454 0 1.655 0.591 3.226 1.635 4.453-0.357-0.125-0.66-0.263-0.949-0.426l0.029 0.015c-0.072-0.041-0.159-0.065-0.251-0.065-0.281 0-0.509 0.224-0.516 0.504v0.001c-0.001 0.030-0.001 0.061-0.001 0.092 0 2.471 1.33 4.695 3.363 5.907-0.206-0.021-0.385-0.047-0.56-0.082l0.038 0.006c-0.029-0.006-0.063-0.009-0.097-0.009-0.285 0-0.516 0.231-0.516 0.516 0 0.056 0.009 0.111 0.026 0.161l-0.001-0.004c0.753 2.349 2.69 4.078 5.032 4.604-1.943 1.217-4.164 1.854-6.496 1.854-0.001 0-0.001 0-0.002 0-0.512 0-1.017-0.031-1.513-0.091l0.060 0.006c-0.018-0.002-0.039-0.004-0.061-0.004-0.285 0-0.516 0.231-0.516 0.516 0 0.182 0.094 0.341 0.235 0.433l0.002 0.001c2.996 1.921 6.46 2.936 10.018 2.936 6.994 0 11.369-3.298 13.808-6.065 3.041-3.45 4.785-8.016 4.785-12.528 0-0.188-0.003-0.379-0.009-0.569 1.2-0.904 2.233-1.998 3.073-3.255 0.055-0.081 0.087-0.18 0.087-0.287 0-0.285-0.231-0.516-0.516-0.516-0.076 0-0.148 0.016-0.212 0.046l0.003-0.001z"></path>
</symbol>
<symbol id="icon-skype" viewBox="0 0 32 32">
<path d="M30.868 19.397c0.222-0.97 0.349-2.083 0.349-3.226 0-0.001 0-0.002 0-0.003v0c0-8.311-6.738-15.049-15.049-15.049-0.877 0-1.737 0.076-2.574 0.22-1.345-0.847-2.936-1.339-4.643-1.339-4.82 0-8.727 3.908-8.727 8.727 0 0.003 0 0.007 0 0.010 0 1.624 0.446 3.144 1.222 4.444l-0.022-0.040c-0.194 0.908-0.304 1.95-0.304 3.019 0 0.003 0 0.005 0 0.008v-0c0 8.311 6.738 15.049 15.049 15.049 0.941 0 1.862-0.087 2.756-0.252 1.229 0.66 2.633 1.036 4.126 1.036 4.82 0 8.727-3.907 8.727-8.727 0-0.003 0-0.006 0-0.009 0-1.409-0.335-2.739-0.931-3.916l0.023 0.050zM23.886 23.36c-0.696 0.985-1.725 1.766-3.058 2.32-1.32 0.549-2.902 0.827-4.703 0.827-2.162 0-3.974-0.38-5.388-1.13-1.011-0.546-1.845-1.286-2.478-2.199-0.639-0.922-0.964-1.837-0.964-2.719 0-0.551 0.211-1.030 0.628-1.421 0.412-0.388 0.941-0.584 1.571-0.584 0.517 0 0.963 0.155 1.326 0.462 0.346 0.294 0.644 0.728 0.882 1.289 0.267 0.611 0.557 1.127 0.865 1.533 0.295 0.391 0.72 0.719 1.262 0.975 0.546 0.258 1.281 0.389 2.186 0.389 1.244 0 2.264-0.266 3.031-0.79 0.749-0.512 1.114-1.126 1.114-1.878 0-0.594-0.19-1.061-0.581-1.427-0.41-0.383-0.95-0.681-1.606-0.886-0.684-0.213-1.612-0.443-2.761-0.684-1.556-0.333-2.878-0.729-3.932-1.175-0.006-0.002-0.010-0.004-0.014-0.006l0.002 0.001c-1.079-0.459-1.949-1.095-2.585-1.892-0.646-0.809-0.974-1.823-0.974-3.016 0-1.137 0.344-2.162 1.022-3.046 0.673-0.878 1.656-1.56 2.921-2.028 1.249-0.462 2.735-0.696 4.416-0.696 1.344 0 2.526 0.155 3.512 0.462 0.992 0.309 1.828 0.726 2.485 1.239 0.662 0.517 1.154 1.070 1.463 1.645 0.312 0.58 0.471 1.158 0.471 1.717 0 0.538-0.208 1.026-0.617 1.452-0.412 0.428-0.932 0.646-1.546 0.646-0.557 0-0.994-0.136-1.296-0.404-0.282-0.249-0.574-0.637-0.898-1.196-0.375-0.713-0.829-1.275-1.35-1.671-0.506-0.385-1.351-0.58-2.513-0.58-1.079 0-1.956 0.217-2.607 0.644-0.628 0.412-0.933 0.883-0.933 1.442 0 0.343 0.098 0.629 0.3 0.876 0.214 0.261 0.516 0.491 0.897 0.681 0.396 0.199 0.803 0.357 1.211 0.47 0.418 0.116 1.12 0.288 2.082 0.51 1.014 0.218 1.958 0.457 2.818 0.714 0.366 0.103 0.535 0.157 0.704 0.212l-0.195-0.055c1.002 0.321 1.868 0.716 2.574 1.176 0.721 0.469 1.292 1.072 1.697 1.792 0.406 0.722 0.612 1.614 0.612 2.65-0 1.24-0.355 2.37-1.053 3.359z"></path>
</symbol>
<symbol id="icon-simon" viewBox="0 0 32 32">
<path d="M15.898 4c0.004 0 0.009 0 0.014 0 5.505 0 9.968 4.463 9.968 9.968 0 5.5-4.455 9.96-9.953 9.968h-0.123c-0.113-0.009-0.216-0.019-0.329-0.019l-0.668-0.028-0.64 0.188-6.674 1.995 0.809-3.191 0.442-1.751-1.026-1.497c-1.108-1.583-1.77-3.549-1.77-5.669 0-5.498 4.453-9.956 9.949-9.965h0.001zM15.898 0.019c-7.7 0.006-13.941 6.25-13.941 13.951 0 2.967 0.926 5.718 2.506 7.979l-0.030-0.045-2.532 10.015 13.404-4.019c0.198 0.009 0.395 0.028 0.593 0.028 7.707 0 13.954-6.248 13.954-13.954s-6.248-13.954-13.954-13.954v0z"></path>
</symbol>
<symbol id="icon-search" viewBox="0 0 32 32">
<path d="M11.956 4.005c4.402 0.020 7.964 3.594 7.964 7.999 0 1.736-0.553 3.344-1.493 4.655l0.016-0.024-0.783 1.105-1.101 0.784c-1.273 0.927-2.868 1.483-4.593 1.483-0.003 0-0.007 0-0.010 0h0.001c-4.419 0-8.001-3.582-8.001-8.001s3.582-8.001 8.001-8.001v0zM11.956 0c-6.631 0-12.007 5.375-12.007 12.007s5.375 12.007 12.007 12.007v0c2.595 0 4.995-0.836 6.945-2.253l-0.034 0.024 9.592 9.645c0.361 0.36 0.86 0.582 1.41 0.582 1.104 0 1.999-0.895 1.999-1.999 0-0.554-0.225-1.055-0.589-1.417l-0-0-9.593-9.645c1.384-1.931 2.214-4.342 2.214-6.946 0-6.608-5.34-11.97-11.941-12.004h-0.003z"></path>
</symbol>
<symbol id="icon-linkedin" viewBox="0 0 32 32">
<path d="M7.449 10.295h-6.424c-0.285 0-0.516 0.231-0.516 0.516v0 20.638c0 0.285 0.231 0.516 0.516 0.516v0h6.424c0.285 0 0.516-0.231 0.516-0.516v0-20.638c0-0.285-0.231-0.516-0.516-0.516v0zM4.239 0.035c-2.337 0-4.239 1.9-4.239 4.234 0 2.336 1.902 4.236 4.239 4.236 2.336 0 4.236-1.9 4.236-4.236s-1.9-4.234-4.236-4.234zM23.789 9.782c-2.58 0-4.487 1.109-5.644 2.369v-1.34c0-0.285-0.231-0.516-0.516-0.516v0h-6.152c-0.285 0-0.516 0.231-0.516 0.516v0 20.638c0 0.285 0.231 0.516 0.516 0.516v0h6.41c0.285 0 0.516-0.231 0.516-0.516v0-10.211c0-3.441 0.935-4.781 3.333-4.781 2.612 0 2.82 2.149 2.82 4.958v10.034c0 0.285 0.231 0.516 0.516 0.516v0h6.412c0.285 0 0.516-0.231 0.516-0.516v0-11.32c0-5.116-0.976-10.347-8.211-10.347z"></path>
</symbol>
<symbol id="icon-facebook" viewBox="0 0 32 32">
<path d="M8.434 17.043h3.508v14.441c0 0.285 0.231 0.516 0.516 0.516v0h5.947c0.285 0 0.516-0.231 0.516-0.516v0-14.373h4.032c0.264-0 0.482-0.199 0.512-0.455l0-0.002 0.612-5.316c0.002-0.018 0.003-0.038 0.003-0.059 0-0.285-0.231-0.516-0.516-0.516h-4.645v-3.333c0-1.005 0.541-1.514 1.608-1.514h3.037c0.285 0 0.516-0.231 0.516-0.516v0-4.88c0-0.285-0.231-0.516-0.516-0.516v0h-4.185c-0.053-0.002-0.115-0.004-0.178-0.004-0.005 0-0.010 0-0.015 0h0.001c-0.726 0-3.25 0.143-5.244 1.977-2.209 2.033-1.902 4.467-1.829 4.889v3.897h-3.682c-0.285 0-0.516 0.231-0.516 0.516v0 5.248c0 0 0 0 0 0 0 0.285 0.231 0.516 0.516 0.516v0z"></path>
</symbol>
<symbol id="icon-down-arrow" viewBox="0 0 32 32">
<path d="M0.911 9.367l1.822-1.822 13.266 13.266 13.266-13.266 1.822 1.822-15.089 15.089z"></path>
<path d="M16 25.367l-16-16 2.734-2.734 13.266 13.266 13.266-13.266 2.734 2.734-16 16.001zM1.822 9.367l14.178 14.178 14.178-14.178-0.911-0.911-13.266 13.266-13.266-13.266-0.911 0.911z"></path>
</symbol>
</defs>
</svg>
